<?xml version="1.0" encoding="iso-8859-1"?>
<!-- Generator: Adobe Illustrator 19.0.0, SVG Export Plug-In . SVG Version: 6.00 Build 0)  -->
<svg version="1.1" id="Capa_1" xmlns="http://www.w3.org/2000/svg" xmlns:xlink="http://www.w3.org/1999/xlink" x="0px" y="0px"
	 viewBox="0 0 512 512" style="enable-background:new 0 0 512 512;" xml:space="preserve">
<g>
	<rect x="116.07" y="133.419" style="fill:#8B6C52;" width="34.712" height="70.145"/>
	<rect x="361.222" y="133.419" style="fill:#8B6C52;" width="34.712" height="70.145"/>
</g>
<path style="fill:#A37F60;" d="M435.95,0H76.048C62.437,0,51.401,11.034,51.401,24.646v98.33c0,13.612,11.034,24.646,24.646,24.646
	h359.903c13.612,0,24.646-11.034,24.646-24.646v-98.33C460.598,11.034,449.562,0,435.95,0z"/>
<rect x="78.52" y="27.118" style="fill:#51D09A;" width="354.959" height="93.386"/>
<rect x="78.52" y="27.118" style="fill:#42AA7E;" width="20.604" height="93.386"/>
<g>
	<path style="fill:#E3E6E8;" d="M109.559,73.167v-0.142c0-14.14,10.657-25.723,25.934-25.723c7.461,0,12.505,1.99,16.628,5.045
		c1.137,0.853,2.132,2.419,2.132,4.336c0,2.982-2.419,5.328-5.401,5.328c-1.493,0-2.488-0.57-3.269-1.067
		c-3.054-2.274-6.251-3.552-10.16-3.552c-8.387,0-14.427,6.966-14.427,15.491v0.142c0,8.528,5.899,15.633,14.427,15.633
		c4.617,0,7.672-1.421,10.799-3.909c0.853-0.712,1.99-1.209,3.269-1.209c2.771,0,5.115,2.274,5.115,5.045
		c0,1.707-0.851,3.058-1.846,3.909c-4.478,3.909-9.734,6.254-17.692,6.254C120.43,98.748,109.559,87.448,109.559,73.167z"/>
	<path style="fill:#E3E6E8;" d="M160.606,73.167v-0.142c0-14.14,11.155-25.723,26.505-25.723c15.347,0,26.359,11.441,26.359,25.581
		v0.142c0,14.14-11.155,25.723-26.504,25.723C171.618,98.748,160.606,87.307,160.606,73.167z M202.031,73.167v-0.142
		c0-8.525-6.254-15.633-15.065-15.633c-8.809,0-14.921,6.966-14.921,15.491v0.142c0,8.528,6.254,15.633,15.065,15.633
		C195.918,88.657,202.031,81.694,202.031,73.167z"/>
	<path style="fill:#E3E6E8;" d="M223.236,53.628c0-3.058,2.416-5.473,5.473-5.473h27.852c2.771,0,4.973,2.205,4.973,4.976
		c0,2.771-2.201,4.973-4.973,4.973h-22.382v10.588h19.185c2.771,0,4.973,2.201,4.973,4.973s-2.201,4.976-4.973,4.976h-19.185v14.209
		c0,3.054-2.416,5.47-5.47,5.47c-3.058,0-5.473-2.416-5.473-5.47V53.628z"/>
	<path style="fill:#E3E6E8;" d="M269.874,53.628c0-3.058,2.416-5.473,5.473-5.473h27.852c2.771,0,4.973,2.205,4.973,4.976
		c0,2.771-2.201,4.973-4.973,4.973h-22.382v10.588h19.185c2.771,0,4.973,2.201,4.973,4.973s-2.202,4.976-4.973,4.976h-19.185v14.209
		c0,3.054-2.416,5.47-5.47,5.47c-3.058,0-5.473-2.416-5.473-5.47V53.628z"/>
	<path style="fill:#E3E6E8;" d="M316.509,92.424V53.628c0-3.058,2.416-5.473,5.473-5.473h27.569c2.699,0,4.904,2.205,4.904,4.904
		c0,2.699-2.205,4.831-4.904,4.831h-22.171V67.98h18.974c2.699,0,4.901,2.205,4.901,4.904c0,2.699-2.201,4.831-4.901,4.831h-18.974
		V88.16h22.526c2.699,0,4.901,2.201,4.901,4.904c0,2.699-2.201,4.831-4.901,4.831h-27.924
		C318.924,97.894,316.509,95.478,316.509,92.424z"/>
	<path style="fill:#E3E6E8;" d="M364.142,92.424V53.628c0-3.058,2.416-5.473,5.473-5.473h27.569c2.699,0,4.904,2.205,4.904,4.904
		c0,2.699-2.205,4.831-4.904,4.831h-22.171V67.98h18.974c2.699,0,4.901,2.205,4.901,4.904c0,2.699-2.201,4.831-4.901,4.831h-18.974
		V88.16h22.526c2.699,0,4.901,2.201,4.901,4.904c0,2.699-2.201,4.831-4.901,4.831h-27.924
		C366.557,97.894,364.142,95.478,364.142,92.424z"/>
</g>
<path style="fill:#FFADCC;" d="M436.968,188.848H75.031c-15.215,0-27.549,12.334-27.549,27.549v251.759l208.518,21.922
	l208.518-21.922V216.397C464.517,201.182,452.183,188.848,436.968,188.848z"/>
<path style="fill:#EC8094;" d="M78.387,468.154V216.397c0-15.215,12.334-27.549,27.549-27.549H75.031
	c-15.215,0-27.549,12.334-27.549,27.549v251.759l208.518,21.922l15.453-1.625L78.387,468.154z"/>
<path style="fill:#8B6C52;" d="M193.925,245.152h-80.034c-9.72,0-17.6,7.88-17.6,17.6v227.097h115.233V262.752
	C211.525,253.032,203.646,245.152,193.925,245.152z"/>
<rect x="123.415" y="272.267" style="fill:#A37F60;" width="60.997" height="217.811"/>
<polygon style="fill:#E3E6E8;" points="258.501,288.542 258.501,382.192 336.514,398.825 414.528,382.192 414.528,288.542 "/>
<path style="fill:#A37F60;" d="M266.183,266.848l-23.444,21.695v8.805c0,12.947,10.497,23.444,23.444,23.444
	c12.947,0,23.444-10.497,23.444-23.444v-8.805L266.183,266.848z"/>
<path style="fill:#51D09A;" d="M313.07,266.848l-23.444,21.695v8.805c0,12.947,10.497,23.444,23.444,23.444
	s23.444-10.497,23.444-23.444v-8.805L313.07,266.848z"/>
<path style="fill:#A37F60;" d="M359.958,266.848l-23.444,21.695v8.805c0,12.947,10.497,23.444,23.444,23.444
	s23.444-10.497,23.444-23.444v-8.805L359.958,266.848z"/>
<path style="fill:#51D09A;" d="M406.846,266.848l-23.444,21.695v8.805c0,12.947,10.497,23.444,23.444,23.444
	c12.947,0,23.444-10.497,23.444-23.444v-8.805L406.846,266.848z"/>
<polygon style="fill:#8B6C52;" points="289.627,245.152 242.739,245.152 242.739,288.542 289.627,288.542 313.07,266.848 "/>
<polygon style="fill:#42AA7E;" points="383.402,245.152 359.958,266.848 383.402,288.542 430.29,288.542 430.29,245.152 "/>
<polygon style="fill:#8B6C52;" points="336.514,245.152 313.07,266.848 336.514,288.542 383.402,288.542 383.402,245.152 "/>
<rect x="289.625" y="245.152" style="fill:#42AA7E;" width="46.888" height="43.391"/>
<g>
	<path style="fill:#8B6C52;" d="M414.528,382.192H258.501c-8.705,0-15.762,7.057-15.762,15.762v17.504H430.29v-17.504
		C430.29,389.249,423.233,382.192,414.528,382.192z"/>
	<path style="fill:#8B6C52;" d="M477.642,468.154H34.357c-12.071,0-21.856,9.786-21.856,21.856V512h486.999v-21.989
		C499.498,477.94,489.714,468.154,477.642,468.154z"/>
</g>
<path style="fill:#725743;" d="M75.564,468.154H34.357c-12.071,0-21.856,9.786-21.856,21.856V512h41.207v-21.989
	C53.708,477.94,63.493,468.154,75.564,468.154z"/>
<g>
</g>
<g>
</g>
<g>
</g>
<g>
</g>
<g>
</g>
<g>
</g>
<g>
</g>
<g>
</g>
<g>
</g>
<g>
</g>
<g>
</g>
<g>
</g>
<g>
</g>
<g>
</g>
<g>
</g>
</svg>
